<svg id="visual" viewBox="0 0 900 300" width="900" height="300" xmlns="http://www.w3.org/2000/svg" xmlns:xlink="http://www.w3.org/1999/xlink" version="1.1"><rect x="0" y="0" width="900" height="300" fill="#31B456"></rect><path d="M0 216L129 199L257 190L386 220L514 190L643 180L771 197L900 215L900 301L771 301L643 301L514 301L386 301L257 301L129 301L0 301Z" fill="#1d8139"></path><path d="M0 215L129 212L257 204L386 206L514 236L643 201L771 199L900 210L900 301L771 301L643 301L514 301L386 301L257 301L129 301L0 301Z" fill="#704d00"></path><path d="M0 237L129 226L257 232L386 224L514 225L643 229L771 255L900 242L900 301L771 301L643 301L514 301L386 301L257 301L129 301L0 301Z" fill="#871400"></path><path d="M0 247L129 265L257 245L386 251L514 266L643 260L771 259L900 240L900 301L771 301L643 301L514 301L386 301L257 301L129 301L0 301Z" fill="#704d00"></path><path d="M0 279L129 264L257 265L386 276L514 270L643 262L771 271L900 273L900 301L771 301L643 301L514 301L386 301L257 301L129 301L0 301Z" fill="#1d8139"></path></svg>